# xmcd
#
# Track frame offsets:
#	150
#	15899
#	32587
#	52912
#	81412
#	94028
#	110379
#	126684
#	134056
#	171032
#
# Disc length: 2472 seconds
#
# Revision: 1
# Processed by: cddbd v1.4PL0 Copyright (c) Steve Scherf et al.
# Submitted via: audiograbber 1.81.01
#
DISCID=7e09a60a
DTITLE=Chris Thomas King - It's A Cold Ass World
DYEAR=1900
DGENRE=
TTITLE0=The Blues Is Back
TTITLE1=Soon This Morning
TTITLE2=Cheatin' Woman Blues
TTITLE3=Cocaine
TTITLE4=Mary Jane
TTITLE5=Take Yo Time
TTITLE6=Going Home To Louisiana
TTITLE7=South Side Shuffle
TTITLE8=You'll Be Sorry, Baby
TTITLE9=Don't Work Too Hard
EXTD=
EXTT0=
EXTT1=
EXTT2=
EXTT3=
EXTT4=
EXTT5=
EXTT6=
EXTT7=
EXTT8=
EXTT9=
PLAYORDER=
